<svg width="220" height="54" viewBox="0 0 220 54" fill="none" xmlns="http://www.w3.org/2000/svg">
  <rect x="1" y="1" width="52" height="52" rx="16" fill="url(#paint0_linear)"/>
  <path d="M14 38.5V22.5L27 13.5L40 22.5V38.5H34.5V25.5H19.5V38.5H14Z" fill="white"/>
  <path d="M23 38.5V30.5H31V38.5H23Z" fill="#FFD76A"/>
  <rect x="21" y="20" width="3.5" height="3.5" rx="1" fill="#DFF6FF"/>
  <rect x="29.5" y="20" width="3.5" height="3.5" rx="1" fill="#DFF6FF"/>
  <path d="M67.8789 18.8359H74.9336L82.1289 31.4297L89.3945 18.8359H96.3438V42H90.793V28.2734L84.0898 39.8516H79.957L73.3594 28.4141V42H67.8789V18.8359ZM101.273 18.8359H118.211V23.5312H106.895V28.0625H116.77V32.6172H106.895V37.2695H118.527V42H101.273V18.8359ZM122.594 18.8359H132.926C140.227 18.8359 145.273 23.5664 145.273 30.3125V30.3828C145.273 37.1289 140.227 42 132.926 42H122.594V18.8359ZM128.215 23.918V36.918H132.926C136.797 36.918 139.379 34.3008 139.379 30.4883V30.418C139.379 26.6055 136.797 23.918 132.926 23.918H128.215ZM149.16 18.8359H154.781V42H149.16V18.8359ZM158.07 30.4883V30.418C158.07 23.8359 163.023 18.4492 170.137 18.4492C174.504 18.4492 177.121 19.9258 179.281 22.0508L175.715 26.1641C173.918 24.5117 172.078 23.4961 170.102 23.4961C166.746 23.4961 164.34 26.2891 164.34 30.3477V30.418C164.34 34.4766 166.676 37.3398 170.102 37.3398C172.324 37.3398 173.988 36.2539 175.891 34.5312L179.457 38.1328C176.84 40.9258 173.953 42.668 169.926 42.668C163.164 42.668 158.07 37.4102 158.07 30.4883ZM182.102 30.4883V30.418C182.102 23.8359 187.277 18.4492 194.379 18.4492C201.48 18.4492 206.586 23.7656 206.586 30.3477V30.418C206.586 37 201.41 42.3867 194.309 42.3867C187.207 42.3867 182.102 37.0703 182.102 30.4883ZM200.719 30.4883V30.418C200.719 26.7109 198.008 23.6016 194.309 23.6016C190.602 23.6016 187.969 26.6406 187.969 30.3477V30.418C187.969 34.125 190.68 37.2344 194.379 37.2344C198.086 37.2344 200.719 34.1953 200.719 30.4883Z" fill="#203039"/>
  <defs>
    <linearGradient id="paint0_linear" x1="7" y1="4" x2="47" y2="47" gradientUnits="userSpaceOnUse">
      <stop stop-color="#0F6D68"/>
      <stop offset="1" stop-color="#D69A42"/>
    </linearGradient>
  </defs>
</svg>
